<svg xmlns="http://www.w3.org/2000/svg" width="557" height="700" fill="none" viewBox="0 0 557 700"><g clip-path="url(#a)"><path fill="#fff" d="m531.495 25.028 2.684-2.667c-11.21-11.226-26.739-18.164-43.856-18.164H66.201c-17.1.016-32.647 6.938-43.84 18.164C11.152 33.57 4.197 49.083 4.197 66.2v424.139c0 17.1 6.955 32.629 18.164 43.839a61.774 61.774 0 0 0 43.84 18.164h424.122c17.117 0 32.646-6.939 43.856-18.164 11.209-11.21 18.147-26.739 18.147-43.839V66.2c0-17.1-6.938-32.63-18.147-43.84l-2.684 2.668-2.684 2.667c9.868 9.884 15.955 23.45 15.955 38.505v424.139c0 15.038-6.104 28.637-15.955 38.488-9.851 9.867-23.433 15.955-38.488 15.955H66.201c-15.055 0-28.637-6.088-38.489-15.939-9.867-9.867-15.954-23.466-15.954-38.504V66.2c0-15.055 6.087-28.62 15.954-38.505 9.852-9.85 23.434-15.938 38.489-15.955h424.122c15.055.017 28.637 6.104 38.488 15.955l2.684-2.667Z"/><path stroke="#fff" stroke-width="8.395" d="m534.179 22.36-2.684 2.668-2.684 2.667m5.368-5.334c-11.21-11.226-26.739-18.164-43.856-18.164H66.201c-17.1.016-32.647 6.938-43.84 18.164C11.152 33.57 4.197 49.083 4.197 66.2v424.139c0 17.1 6.955 32.629 18.164 43.839a61.774 61.774 0 0 0 43.84 18.164h424.122c17.117 0 32.646-6.939 43.856-18.164 11.209-11.21 18.147-26.739 18.147-43.839V66.2c0-17.1-6.938-32.63-18.147-43.84Zm-5.368 5.334c9.868 9.884 15.955 23.45 15.955 38.505v424.139c0 15.038-6.104 28.637-15.955 38.488-9.851 9.867-23.433 15.955-38.488 15.955H66.201c-15.055 0-28.637-6.088-38.489-15.939-9.867-9.867-15.954-23.466-15.954-38.504V66.2c0-15.055 6.087-28.62 15.954-38.505 9.852-9.85 23.434-15.938 38.489-15.955h424.122c15.055.017 28.637 6.104 38.488 15.955Z"/><path fill="#fff" d="M89.713 402.861a32.828 32.828 0 0 1-23.297-9.643c-5.92-5.939-9.617-14.182-9.617-23.255V230.671a32.913 32.913 0 0 1 9.617-23.255c5.953-5.971 14.235-9.628 23.297-9.628a32.775 32.775 0 0 1 23.239 9.62 32.797 32.797 0 0 1 9.646 23.263v139.292c0 9.067-3.683 17.32-9.646 23.263a32.785 32.785 0 0 1-23.24 9.635Zm-.01-228.695a32.8 32.8 0 0 1-23.282-9.646 32.913 32.913 0 0 1-9.617-23.255 32.839 32.839 0 0 1 9.617-23.237l.003-.003.003-.002a32.811 32.811 0 0 1 23.276-9.657c9.059 0 17.319 3.7 23.263 9.662a32.794 32.794 0 0 1 9.638 23.237 32.827 32.827 0 0 1-9.638 23.255 32.802 32.802 0 0 1-23.263 9.646Zm94.809 226.611c-18.109 0-32.901-14.773-32.901-32.885V230.665c0-18.112 14.792-32.885 32.901-32.885 18.124 0 32.901 14.776 32.901 32.885v104.289l33.922-.039V230.551c0-18.127 14.793-32.901 32.917-32.901 18.096 0 32.883 14.774 32.883 32.901v137.195c0 18.139-14.792 32.896-32.896 32.899h-.005l-99.719.132h-.003Zm195.467 1.18c-18.11 0-32.886-14.777-32.886-32.914l-.016-137.917v-21.055l.099.05.115-23.951.195-44.898a32.754 32.754 0 0 1 9.649-23.25l.002-.003a32.733 32.733 0 0 1 23.25-9.648 32.868 32.868 0 0 1 23.274 9.64 32.84 32.84 0 0 1 9.625 23.261v.005l-.167 56.216 62.097.292c9.039 0 17.283 3.683 23.239 9.62l.953.95.042.255c5.326 5.843 8.648 13.564 8.648 22.058a32.78 32.78 0 0 1-9.64 23.26c-5.957 5.957-14.203 9.641-23.243 9.641l-47.599.211-15.132.078.393 105.177v.008c0 18.138-14.775 32.914-32.898 32.914Z"/><path fill="#B5DC17" d="M200.463 485.904c-5.204 5.187-12.371 8.395-20.291 8.395a28.593 28.593 0 0 1-20.292-8.395 28.671 28.671 0 0 1-8.411-20.308 28.597 28.597 0 0 1 8.411-20.275c5.172-5.203 12.355-8.411 20.292-8.411 7.92 0 15.087 3.208 20.291 8.411a28.593 28.593 0 0 1 8.411 20.275 28.639 28.639 0 0 1-8.411 20.308Z"/><path fill="#F78D11" d="M299.421 485.904a28.523 28.523 0 0 1-20.275 8.395 28.619 28.619 0 0 1-20.291-8.395 28.6 28.6 0 0 1-8.411-20.308 28.526 28.526 0 0 1 8.411-20.275 28.566 28.566 0 0 1 20.291-8.411 28.471 28.471 0 0 1 20.275 8.411 28.541 28.541 0 0 1 8.428 20.275 28.587 28.587 0 0 1-8.428 20.308Z"/><path fill="#2D9EDF" d="M398.126 485.904c-5.204 5.187-12.371 8.395-20.307 8.395-7.921 0-15.104-3.208-20.259-8.395a28.535 28.535 0 0 1-8.444-20.308 28.489 28.489 0 0 1 8.444-20.275c5.155-5.203 12.338-8.411 20.259-8.411 7.936 0 15.103 3.208 20.307 8.411 5.204 5.171 8.395 12.372 8.395 20.275 0 7.937-3.191 15.121-8.395 20.308Z"/><path fill="#fff" d="M5.857 699.996v-11.177h12.698V577.381H5.857v-11.177H44.9v11.177H32.203v111.438h38.275v-21.993H82.8v33.17H5.857Zm138.528-37.907h-25.577c-10.817 0-11.193.377-11.193 10.228v8.165c-.18 8.706.965 8.706 10.244 8.706h26.526v-27.099Zm23.302 27.099v10.8h-60.072c-12.306 0-12.306-5.302-12.306-16.855V668.16c-.197-14.416 2.65-15.726 19.129-15.726h29.947v-18.016c0-9.671-.753-9.851-12.503-9.851H119.74c-10.047 0-10.98 0-10.8 9.851v3.993H97.387v-5.499c0-9.671 0-12.715 3.027-15.726 3.028-3.223 5.679-3.223 17.821-3.42h15.349c10.228 0 15.726.197 19.523 3.78 3.6 3.42 3.6 8.166 3.6 17.264v54.378h10.98Zm4.742 10.808v-10.8h11.177v-64.622h-11.177v-10.816h50.794c19.882-.164 20.259 4.745 20.259 19.522v55.916h11.176v10.8h-34.839v-10.8h10.964V636.7c0-10.62 0-12.126-11.733-12.126h-23.122v64.622h10.98v10.8h-34.479Zm86.79 0v-10.8h11.177v-64.622h-11.177v-10.816h50.794c19.882-.164 20.275 4.745 20.275 19.522v55.916h11.16v10.8h-34.855v-10.8h10.996V636.7c0-10.62 0-12.126-11.749-12.126h-23.122v64.622h10.996v10.8h-34.495Zm103.283-115.221a8.49 8.49 0 0 1 8.526 8.526 8.49 8.49 0 0 1-8.526 8.525 8.48 8.48 0 0 1-8.526-8.525 8.48 8.48 0 0 1 8.526-8.526Zm-16.495 115.219v-10.8H357.2v-64.622h-11.193v-10.816h23.695v75.438h11.177v10.8h-34.872Zm97.787-62.537c0-12.502-1.326-12.502-12.502-12.895h-14.434c-11.716 0-12.289 0-12.485 12.895v38.668c0 8.526.376 9.851 1.898 11.553 1.145 1.325 1.325 1.325 9.671 1.522h15.922c10.031 0 12.306 0 11.93-11.946v-39.797Zm12.125 39.797c-.376 13.451-.376 15.153-3.223 18.77-3.6 3.976-7.953 3.976-17.052 3.976h-23.875c-8.345 0-12.322-.196-15.726-3.42-3.78-3.96-3.976-9.655-3.976-19.13v-39.993c.196-12.699.196-16.479 3.404-20.095 3.6-3.764 7.576-3.6 18.753-3.6h19.898c12.715.392 15.939.392 18.95 3.976 2.847 3.24 2.847 7.773 2.847 18.59v40.926Zm12.517 22.742v-10.8h11.177v-64.622h-11.177v-10.816h50.794c19.882-.164 20.275 4.745 20.275 19.522v55.916h11.177v10.8H515.81v-10.8h10.98V636.7c0-10.62 0-12.126-11.733-12.126h-23.122v64.622h10.964v10.8h-34.463Z"/><path fill="#FDDF12" d="M101.967 485.904c-5.204 5.187-12.371 8.395-20.291 8.395a28.591 28.591 0 0 1-20.292-8.395 28.67 28.67 0 0 1-8.41-20.308 28.595 28.595 0 0 1 8.41-20.275c5.171-5.203 12.355-8.411 20.291-8.411 7.92 0 15.088 3.208 20.292 8.411a28.597 28.597 0 0 1 8.411 20.275 28.643 28.643 0 0 1-8.411 20.308Z"/><path fill="#A62A86" d="M496.919 485.904c-5.203 5.187-12.371 8.395-20.275 8.395a28.59 28.59 0 0 1-20.291-8.395c-5.22-5.187-8.411-12.387-8.427-20.308.016-7.903 3.207-15.104 8.427-20.275a28.538 28.538 0 0 1 20.291-8.411c7.904 0 15.072 3.208 20.275 8.411a28.526 28.526 0 0 1 8.411 20.275 28.6 28.6 0 0 1-8.411 20.308Z"/></g><defs><clipPath id="a"><path fill="#fff" d="M0 0h556.524v700H0z"/></clipPath></defs></svg>